Coordinates
version=1
nRows=19
nColumns=33
inDegrees=yes

Units are S.I. units (second, meters, Newtons, ...)
Angles are in degrees.

endheader
time	ground_thorax_rot_x	ground_thorax_rot_y	ground_thorax_rot_z	ground_thorax_tx	ground_thorax_ty	ground_thorax_tz	clav_prot_r	clav_elev_r	scapula_abduction_r	scapula_elevation_r	scapula_upward_rot_r	scapula_winging_r	shoulder_elv_r	plane_of_elev_r	axial_rot_r	elbow_flexion_r	pro_sup_r	wrist_flex_r	wrist_dev_r	clav_prot_l	clav_elev_l	scapula_abduction_l	scapula_elevation_l	scapula_upward_rot_l	scapula_winging_l	shoulder_elv_l	plane_of_elev_l	axial_rot_l	elbow_flexion_l	pro_sup_l	wrist_flex_l	wrist_dev_l
      1.86000000	      8.49955040	     -4.40949517	     13.65753316	     -0.12574200	      1.04861191	      0.00706422	      9.77520692	    -15.08083195	     19.05556101	     -9.16012931	      4.00576409	     -1.97507905	     55.59899552	     13.83124484	    -17.39570033	    134.12421313	     35.59099193	     31.38493844	    -24.99999983	     10.00401991	     -8.32162807	    -16.72590741	      0.55851404	     -4.79566526	      3.30325979	     43.68180875	     47.50134859	     -1.90338375	    117.12598779	     42.47682496	    -15.08008512	    -23.42561480
      1.87000000	      8.46413647	     -4.32408978	     13.68397813	     -0.12562741	      1.04878488	      0.00729803	      9.75421492	    -15.06832103	     19.08805524	     -9.19607842	      4.12870196	     -1.99256948	     55.70540602	     13.91082166	    -17.38235774	    134.07573258	     35.59293872	     31.38618504	    -24.99999983	     10.01834741	     -8.31689524	    -16.73997242	      0.54249946	     -4.82202910	      3.30647831	     43.73154309	     47.46184857	     -2.05822845	    117.14563523	     42.48022506	    -15.03371919	    -23.45250274
      1.88000000	      8.40706972	     -4.23104755	     13.64734780	     -0.12544536	      1.04904182	      0.00732966	      9.71694733	    -15.01116709	     19.13824509	     -9.22501176	      4.33710860	     -2.04038008	     55.92108654	     13.97257677	    -17.38976166	    133.91871463	     35.59213672	     31.37745686	    -24.99999983	     10.06206975	     -8.37281815	    -16.79896523	      0.57290310	     -4.86782735	      3.31031605	     43.75296563	     47.52582909	     -2.31538605	    117.19665641	     42.47628839	    -14.94602741	    -23.49444948
      1.89000000	      8.05905522	     -3.86646537	     13.56360586	     -0.12499038	      1.04910101	      0.00717413	      9.70305462	    -14.83968751	     19.23656205	     -9.15494013	      4.56383968	     -2.16593450	     56.00746964	     13.83878690	    -18.06429145	    134.10049153	     35.42500951	     31.33856831	    -24.99964515	     10.08332993	     -8.55194146	    -16.68047911	      0.55941588	     -5.27141981	      3.18109882	     43.49264513	     47.73827350	     -5.50246422	    119.70962794	     35.20626839	    -11.03488167	    -12.55339964
      1.90000000	      8.52730903	     -4.06403111	     13.48280145	     -0.12453235	      1.04987290	      0.00767440	      9.62128472	    -14.74569314	     19.40104415	     -9.28305139	      5.12016263	     -2.27134951	     56.25984031	     14.35302735	    -17.43509981	    133.50355323	     35.19701776	     31.34848727	    -24.99999983	      9.50778017	     -8.77396937	    -15.82713076	      0.89759398	     -4.96670125	      2.75801742	     43.19243037	     47.77258514	     -2.77368217	    117.84163941	     39.24006913	     -8.80595773	    -23.17978125
      1.91000000	      8.14080073	     -3.76213246	     13.48301392	     -0.12461122	      1.04969141	      0.00728381	      9.94442395	    -14.33472557	     20.13632921	     -9.03519508	      5.48808638	     -2.78877240	     56.41205995	     14.18206826	    -18.19078655	    133.58398922	     35.03473335	     31.23441959	    -24.99999983	      9.93853041	     -8.09051878	    -16.65271592	      0.40342891	     -4.66928676	      3.35721373	     42.53963207	     48.13198889	     -3.31674314	    117.52526093	     38.67362365	     -9.23562204	    -23.84054904
      1.92000000	      8.00358593	     -3.57640239	     13.49496531	     -0.12452410	      1.05022866	      0.00747767	      9.90758796	    -14.25493901	     20.27748328	     -9.10319456	      5.85826867	     -2.88059497	     56.68324073	     14.35751062	    -18.26856049	    133.18631570	     35.03309401	     31.19566220	    -24.99999983	      9.98886192	     -8.12602418	    -16.73147588	      0.42468564	     -4.69404335	      3.37640460	     42.57658726	     48.13621067	     -3.56478089	    117.51589007	     38.68046197	     -9.20744174	    -23.91551891
      1.93000000	      7.60906814	     -3.43472647	     13.44138923	     -0.12438298	      1.04991176	      0.00697430	     10.40440953	    -13.48687178	     21.55746965	     -8.69685471	      6.67655087	     -3.80376058	     56.47519193	     14.29583144	    -19.16681352	    133.12908527	     34.99858268	     31.00333918	    -24.99999983	      9.99961251	     -7.08000191	    -17.01309026	     -0.17499637	     -3.89740821	      3.87718862	     41.00783121	     48.42784284	     -4.39552148	    117.64678385	     28.11695125	     -3.09424418	    -23.49110766
      1.94000000	      8.13367812	     -3.35052150	     13.35063922	     -0.12448370	      1.05088243	      0.00755633	      9.42105463	    -13.83654493	     19.35621672	     -8.65615740	      5.64607914	     -2.74177576	     58.66700403	     17.81913376	    -13.81892757	    131.97413013	     68.09812095	      0.83934457	    -24.99999983	      9.90084938	     -7.73388931	    -17.30420360	      0.83042019	     -2.93362594	      3.83874028	     40.82463202	     47.20722648	     -2.51604139	    118.47863749	     26.80585071	      5.39380211	    -24.85418520
      1.95000000	      7.50215651	     -2.90336467	     13.22365410	     -0.12422519	      1.05163436	      0.00744182	      9.74472613	    -14.56805373	     19.74531839	     -9.21456094	      5.37906888	     -2.50188915	     60.72099188	     17.19167490	    -15.30641889	    132.43895894	     59.61987603	      2.39346570	    -24.99999983	      9.53073125	     -8.78426704	    -15.52614309	      0.53728228	     -5.81263128	      2.58979052	     43.41196143	     49.30772350	     -8.56452895	    118.59123052	     36.82094952	    -15.20251922	    -10.52321753
      1.96000000	      7.32647195	     -2.53903133	     13.46019614	     -0.12378484	      1.05194020	      0.00739224	      9.90217631	    -13.41821188	     20.45732941	     -8.46921415	      6.19888774	     -3.39718501	     60.43988288	     17.48971132	    -15.97491837	    132.49074422	     55.47091288	      2.62279790	    -24.99999983	      9.67161709	     -8.65945465	    -15.49461657	      0.12131908	     -6.49547957	      2.58489706	     43.55925886	     49.87651339	     -8.80254653	    118.49623389	     35.28261293	    -14.26466195	    -10.71822739
      1.97000000	      7.52243718	     -2.09104677	     13.42162716	     -0.12328929	      1.05309245	      0.00751086	      9.35971444	    -12.68408035	     20.07219357	     -8.17071677	      7.13864460	     -3.60891811	     61.00763651	     18.62636168	    -16.50974863	    133.04178822	     58.89275238	     -7.73466209	     -1.53374550	      9.50289856	     -9.42112423	    -15.17123432	      0.73857613	     -6.67890294	      2.17604401	     43.58903297	     49.73312630	     -8.85245241	    118.31425296	     34.19644568	    -13.06049381	    -11.72656118
      1.98000000	      6.84455107	     -2.37034658	     13.34604449	     -0.12417821	      1.05306170	      0.00767231	     10.96581490	    -12.46471800	     23.65851887	     -8.52414447	      8.75754913	     -5.15322764	     61.10154593	     16.96703959	    -18.05219153	    131.42591915	     58.53492980	      4.87216448	    -14.88351686	      9.63598426	     -8.10608547	    -15.58149701	     -0.17984615	     -6.03695370	      2.82496105	     43.60651339	     49.92458129	     -8.56843440	    118.19488010	     33.33550911	    -12.70002036	    -12.26006808
      1.99000000	      6.84074387	     -1.92315361	     13.78183576	     -0.12454835	      1.05399689	      0.00742264	     11.12779818	    -10.88333399	     25.03813089	     -7.79874570	     10.67266563	     -6.48165824	     60.15253661	     16.77988503	    -18.25251298	    129.28826135	     54.79152064	     13.31117324	    -24.99999983	      9.72995169	     -8.55634391	    -15.64324121	      0.08640973	     -6.35832056	      2.68679563	     43.22811921	     49.73354682	     -9.09386918	    117.82207758	     33.13087901	    -12.42875974	    -12.83472414
      2.00000000	      6.63651936	     -1.60511446	     13.53455907	     -0.12398660	      1.05493646	      0.00761944	     10.82824408	     -9.66317503	     25.94919453	     -7.54723814	     13.02218879	     -7.38523280	     59.18433293	     16.97623161	    -19.27500126	    127.67834301	     53.09288817	     20.08792445	    -24.99999983	      9.51808809	     -8.64163161	    -15.34717679	      0.23997760	     -6.19358666	      2.54594874	     43.07053301	     49.99903492	     -9.69644785	    117.53162339	     33.00193756	    -12.59801114	    -13.45346035
      2.01000000	      6.43400587	     -1.19228975	     13.72467373	     -0.12410310	      1.05612767	      0.00778109	     10.57647137	     -9.20574939	     26.38693626	     -7.61756423	     14.40374014	     -7.73498129	     59.76162391	     17.43617535	    -19.86900577	    125.67755688	     52.98716111	     20.12108666	    -24.99999983	      9.65161350	     -8.69004764	    -15.49224337	      0.18339077	     -6.41832453	      2.57434855	     42.98936733	     50.06334912	    -10.02531912	    117.40630492	     32.99865949	    -12.61775419	    -13.50081613
      2.02000000	      6.37651667	     -0.81616771	     13.91854971	     -0.12417347	      1.05649151	      0.00778336	     10.35256786	     -7.24743020	     27.45202785	     -6.68421642	     16.72195644	     -9.00539668	     58.76258964	     18.00465829	    -20.41722224	    123.29101822	     51.92583513	     21.27715818	    -24.99999983	      9.77321119	     -8.50666049	    -15.67726040	     -0.00193233	     -6.45727267	      2.71167628	     42.41201232	     50.29005196	    -10.62590015	    117.03433703	     32.93797184	    -13.41836219	    -14.06488479
      2.03000000	      5.99130722	     -0.43236701	     14.02696600	     -0.12447414	      1.05777140	      0.00778394	     10.07353849	     -6.74582918	     28.00486118	     -6.75113982	     18.28198644	     -9.39471806	     59.35960908	     18.56596574	    -21.15771391	    120.50614880	     52.12513208	     21.27164145	    -24.99999983	      9.88119805	     -8.56287390	    -15.84011403	      0.01924681	     -6.52448703	      2.75553533	     42.44530785	     50.34102172	    -11.05657336	    116.65180702	     32.97219025	    -13.43488023	    -14.13114752
      2.04000000	      5.80579856	     -0.18960419	     14.07549128	     -0.12448883	      1.05816081	      0.00798848	      9.69109681	     -4.83198749	     28.91365969	     -5.85713269	     20.67202856	    -10.49720171	     58.40794322	     19.47279573	    -21.87064367	    117.25747789	     52.01332415	     22.13317735	    -24.99999983	      9.89970987	     -8.26160860	    -15.95125721	     -0.14793623	     -6.28180426	      2.91446020	     42.02384365	     50.48467067	    -11.57448376	    116.29703286	     32.91287787	    -14.30094383	    -14.77143178
